<mxfile host="app.diagrams.net" modified="2024-06-08T20:48:17.103Z" agent="Mozilla/5.0 (Windows NT 10.0; Win64; x64) AppleWebKit/537.36 (KHTML, like Gecko) Chrome/125.0.0.0 Safari/537.36" version="24.5.2" etag="ZF3vEmJK7hNL3y5TMlzE" type="device">
  <diagram id="90GXOY95S900J3Ns8Xxd" name="Page-1">
    <mxGraphModel dx="420" dy="1150" grid="1" gridSize="10" guides="1" tooltips="1" connect="1" arrows="1" fold="1" page="1" pageScale="1" pageWidth="827" pageHeight="1169" math="0" shadow="0">
      <root>
        <mxCell id="0" />
        <mxCell id="1" parent="0" />
        <mxCell id="4_VUHedXgbbOKvBy3rCh-115" value="" style="rounded=0;whiteSpace=wrap;html=1;fillColor=#d5e8d4;strokeColor=#82b366;" vertex="1" parent="1">
          <mxGeometry x="1760" y="400" width="920" height="920" as="geometry" />
        </mxCell>
        <mxCell id="4_VUHedXgbbOKvBy3rCh-65" value="tblElectionPapi" style="rounded=0;whiteSpace=wrap;html=1;" vertex="1" parent="1">
          <mxGeometry x="1800" y="440" width="160" height="40" as="geometry" />
        </mxCell>
        <mxCell id="4_VUHedXgbbOKvBy3rCh-66" value="ElectionPapiID&lt;br&gt;&lt;div&gt;&lt;span style=&quot;background-color: initial;&quot;&gt;ElectionPapi&lt;/span&gt;Date&lt;br&gt;ElectionPapiDate&lt;/div&gt;" style="rounded=0;whiteSpace=wrap;html=1;" vertex="1" parent="1">
          <mxGeometry x="1840" y="480" width="160" height="160" as="geometry" />
        </mxCell>
        <mxCell id="4_VUHedXgbbOKvBy3rCh-67" value="PK&lt;br&gt;&lt;br&gt;&lt;div&gt;&lt;br&gt;&lt;/div&gt;" style="rounded=0;whiteSpace=wrap;html=1;" vertex="1" parent="1">
          <mxGeometry x="1800" y="480" width="40" height="160" as="geometry" />
        </mxCell>
        <mxCell id="4_VUHedXgbbOKvBy3rCh-68" value="1" style="rounded=0;whiteSpace=wrap;html=1;" vertex="1" parent="1">
          <mxGeometry x="1960" y="440" width="40" height="40" as="geometry" />
        </mxCell>
        <mxCell id="4_VUHedXgbbOKvBy3rCh-81" style="edgeStyle=orthogonalEdgeStyle;rounded=0;orthogonalLoop=1;jettySize=auto;html=1;entryX=0.5;entryY=1;entryDx=0;entryDy=0;startArrow=ERzeroToMany;startFill=0;endArrow=ERmandOne;endFill=0;" edge="1" parent="1" source="4_VUHedXgbbOKvBy3rCh-69" target="4_VUHedXgbbOKvBy3rCh-66">
          <mxGeometry relative="1" as="geometry" />
        </mxCell>
        <mxCell id="4_VUHedXgbbOKvBy3rCh-69" value="tblNominationPapi" style="rounded=0;whiteSpace=wrap;html=1;" vertex="1" parent="1">
          <mxGeometry x="1800" y="760" width="160" height="40" as="geometry" />
        </mxCell>
        <mxCell id="4_VUHedXgbbOKvBy3rCh-83" style="edgeStyle=orthogonalEdgeStyle;rounded=0;orthogonalLoop=1;jettySize=auto;html=1;entryX=0.75;entryY=0;entryDx=0;entryDy=0;endArrow=ERoneToMany;endFill=0;startArrow=ERmandOne;startFill=0;" edge="1" parent="1" source="4_VUHedXgbbOKvBy3rCh-70" target="4_VUHedXgbbOKvBy3rCh-73">
          <mxGeometry relative="1" as="geometry" />
        </mxCell>
        <mxCell id="4_VUHedXgbbOKvBy3rCh-70" value="NominationPapiID&lt;br&gt;ElectionID&lt;br&gt;UserNominatedID" style="rounded=0;whiteSpace=wrap;html=1;" vertex="1" parent="1">
          <mxGeometry x="1840" y="800" width="160" height="160" as="geometry" />
        </mxCell>
        <mxCell id="4_VUHedXgbbOKvBy3rCh-71" value="SK&lt;br&gt;CK&lt;br&gt;CK" style="rounded=0;whiteSpace=wrap;html=1;" vertex="1" parent="1">
          <mxGeometry x="1800" y="800" width="40" height="160" as="geometry" />
        </mxCell>
        <mxCell id="4_VUHedXgbbOKvBy3rCh-72" value="2" style="rounded=0;whiteSpace=wrap;html=1;" vertex="1" parent="1">
          <mxGeometry x="1960" y="760" width="40" height="40" as="geometry" />
        </mxCell>
        <mxCell id="4_VUHedXgbbOKvBy3rCh-73" value="tblNominationPapiReason" style="rounded=0;whiteSpace=wrap;html=1;" vertex="1" parent="1">
          <mxGeometry x="1800" y="1080" width="160" height="40" as="geometry" />
        </mxCell>
        <mxCell id="4_VUHedXgbbOKvBy3rCh-74" value="NominationPapiReasonID&lt;br&gt;NominationPapiID&lt;div&gt;SubmitteID&lt;br&gt;Reason&lt;/div&gt;" style="rounded=0;whiteSpace=wrap;html=1;" vertex="1" parent="1">
          <mxGeometry x="1840" y="1120" width="160" height="160" as="geometry" />
        </mxCell>
        <mxCell id="4_VUHedXgbbOKvBy3rCh-75" value="&lt;div&gt;PK&lt;br&gt;FK&lt;br&gt;FK&lt;br&gt;&lt;br&gt;&lt;/div&gt;" style="rounded=0;whiteSpace=wrap;html=1;" vertex="1" parent="1">
          <mxGeometry x="1800" y="1120" width="40" height="160" as="geometry" />
        </mxCell>
        <mxCell id="4_VUHedXgbbOKvBy3rCh-76" value="1" style="rounded=0;whiteSpace=wrap;html=1;" vertex="1" parent="1">
          <mxGeometry x="1960" y="1080" width="40" height="40" as="geometry" />
        </mxCell>
        <mxCell id="4_VUHedXgbbOKvBy3rCh-89" style="edgeStyle=orthogonalEdgeStyle;rounded=0;orthogonalLoop=1;jettySize=auto;html=1;entryX=0.5;entryY=1;entryDx=0;entryDy=0;startArrow=ERmandOne;startFill=0;endArrow=ERzeroToMany;endFill=0;" edge="1" parent="1" source="4_VUHedXgbbOKvBy3rCh-77" target="4_VUHedXgbbOKvBy3rCh-85">
          <mxGeometry relative="1" as="geometry" />
        </mxCell>
        <mxCell id="4_VUHedXgbbOKvBy3rCh-77" value="tblUsers" style="rounded=0;whiteSpace=wrap;html=1;" vertex="1" parent="1">
          <mxGeometry x="2120" y="760" width="160" height="40" as="geometry" />
        </mxCell>
        <mxCell id="4_VUHedXgbbOKvBy3rCh-88" style="edgeStyle=orthogonalEdgeStyle;rounded=0;orthogonalLoop=1;jettySize=auto;html=1;entryX=1;entryY=0.5;entryDx=0;entryDy=0;startArrow=ERmandOne;startFill=0;endArrow=ERzeroToMany;endFill=0;exitX=0;exitY=0.75;exitDx=0;exitDy=0;" edge="1" parent="1" source="4_VUHedXgbbOKvBy3rCh-79" target="4_VUHedXgbbOKvBy3rCh-74">
          <mxGeometry relative="1" as="geometry">
            <Array as="points">
              <mxPoint x="2040" y="920" />
              <mxPoint x="2040" y="1200" />
            </Array>
          </mxGeometry>
        </mxCell>
        <mxCell id="4_VUHedXgbbOKvBy3rCh-106" style="edgeStyle=orthogonalEdgeStyle;rounded=0;orthogonalLoop=1;jettySize=auto;html=1;endArrow=ERzeroToMany;endFill=0;startArrow=ERmandOne;startFill=0;" edge="1" parent="1" source="4_VUHedXgbbOKvBy3rCh-78" target="4_VUHedXgbbOKvBy3rCh-99">
          <mxGeometry relative="1" as="geometry" />
        </mxCell>
        <mxCell id="4_VUHedXgbbOKvBy3rCh-107" style="edgeStyle=orthogonalEdgeStyle;rounded=0;orthogonalLoop=1;jettySize=auto;html=1;entryX=0;entryY=0.5;entryDx=0;entryDy=0;endArrow=ERzeroToMany;endFill=0;startArrow=ERmandOne;startFill=0;exitX=1;exitY=0.75;exitDx=0;exitDy=0;" edge="1" parent="1" source="4_VUHedXgbbOKvBy3rCh-78" target="4_VUHedXgbbOKvBy3rCh-103">
          <mxGeometry relative="1" as="geometry">
            <Array as="points">
              <mxPoint x="2400" y="920" />
              <mxPoint x="2400" y="1200" />
            </Array>
          </mxGeometry>
        </mxCell>
        <mxCell id="4_VUHedXgbbOKvBy3rCh-114" style="edgeStyle=orthogonalEdgeStyle;rounded=0;orthogonalLoop=1;jettySize=auto;html=1;entryX=0.5;entryY=0;entryDx=0;entryDy=0;endArrow=ERmandOne;endFill=0;startArrow=ERmandOne;startFill=0;" edge="1" parent="1" source="4_VUHedXgbbOKvBy3rCh-78" target="4_VUHedXgbbOKvBy3rCh-109">
          <mxGeometry relative="1" as="geometry" />
        </mxCell>
        <mxCell id="4_VUHedXgbbOKvBy3rCh-78" value="UserID&lt;div&gt;UserName&lt;br&gt;UserSurname&lt;/div&gt;" style="rounded=0;whiteSpace=wrap;html=1;" vertex="1" parent="1">
          <mxGeometry x="2160" y="800" width="160" height="160" as="geometry" />
        </mxCell>
        <mxCell id="4_VUHedXgbbOKvBy3rCh-82" style="edgeStyle=orthogonalEdgeStyle;rounded=0;orthogonalLoop=1;jettySize=auto;html=1;entryX=1;entryY=0.5;entryDx=0;entryDy=0;startArrow=ERmandOne;startFill=0;endArrow=ERzeroToMany;endFill=0;" edge="1" parent="1" source="4_VUHedXgbbOKvBy3rCh-79" target="4_VUHedXgbbOKvBy3rCh-70">
          <mxGeometry relative="1" as="geometry" />
        </mxCell>
        <mxCell id="4_VUHedXgbbOKvBy3rCh-79" value="PK&lt;br&gt;&lt;br&gt;&lt;div&gt;&lt;br&gt;&lt;/div&gt;" style="rounded=0;whiteSpace=wrap;html=1;" vertex="1" parent="1">
          <mxGeometry x="2120" y="800" width="40" height="160" as="geometry" />
        </mxCell>
        <mxCell id="4_VUHedXgbbOKvBy3rCh-80" value="1" style="rounded=0;whiteSpace=wrap;html=1;" vertex="1" parent="1">
          <mxGeometry x="2280" y="760" width="40" height="40" as="geometry" />
        </mxCell>
        <mxCell id="4_VUHedXgbbOKvBy3rCh-84" value="tblVotePapi" style="rounded=0;whiteSpace=wrap;html=1;" vertex="1" parent="1">
          <mxGeometry x="2120" y="440" width="160" height="40" as="geometry" />
        </mxCell>
        <mxCell id="4_VUHedXgbbOKvBy3rCh-85" value="NominationID&lt;div&gt;VoterID&lt;/div&gt;&lt;div&gt;DateOfVote&lt;/div&gt;" style="rounded=0;whiteSpace=wrap;html=1;" vertex="1" parent="1">
          <mxGeometry x="2160" y="480" width="160" height="160" as="geometry" />
        </mxCell>
        <mxCell id="4_VUHedXgbbOKvBy3rCh-90" style="edgeStyle=orthogonalEdgeStyle;rounded=0;orthogonalLoop=1;jettySize=auto;html=1;entryX=1;entryY=0.25;entryDx=0;entryDy=0;endArrow=ERmandOne;endFill=0;startArrow=ERmandOne;startFill=0;" edge="1" parent="1" source="4_VUHedXgbbOKvBy3rCh-86" target="4_VUHedXgbbOKvBy3rCh-70">
          <mxGeometry relative="1" as="geometry">
            <Array as="points">
              <mxPoint x="2040" y="560" />
              <mxPoint x="2040" y="840" />
            </Array>
          </mxGeometry>
        </mxCell>
        <mxCell id="4_VUHedXgbbOKvBy3rCh-86" value="&lt;div&gt;CK&lt;br&gt;CK&lt;/div&gt;&lt;div&gt;&lt;br&gt;&lt;/div&gt;" style="rounded=0;whiteSpace=wrap;html=1;" vertex="1" parent="1">
          <mxGeometry x="2120" y="480" width="40" height="160" as="geometry" />
        </mxCell>
        <mxCell id="4_VUHedXgbbOKvBy3rCh-87" value="3" style="rounded=0;whiteSpace=wrap;html=1;" vertex="1" parent="1">
          <mxGeometry x="2280" y="440" width="40" height="40" as="geometry" />
        </mxCell>
        <mxCell id="4_VUHedXgbbOKvBy3rCh-91" value="tblElectionDrol" style="rounded=0;whiteSpace=wrap;html=1;" vertex="1" parent="1">
          <mxGeometry x="2440" y="440" width="160" height="40" as="geometry" />
        </mxCell>
        <mxCell id="4_VUHedXgbbOKvBy3rCh-92" value="ElectionDrolID&lt;br&gt;&lt;div&gt;&lt;span style=&quot;background-color: initial;&quot;&gt;ElectionDrol&lt;/span&gt;Date&lt;br&gt;ElectionDrolDate&lt;/div&gt;" style="rounded=0;whiteSpace=wrap;html=1;" vertex="1" parent="1">
          <mxGeometry x="2480" y="480" width="160" height="160" as="geometry" />
        </mxCell>
        <mxCell id="4_VUHedXgbbOKvBy3rCh-93" value="PK&lt;br&gt;&lt;br&gt;&lt;div&gt;&lt;br&gt;&lt;/div&gt;" style="rounded=0;whiteSpace=wrap;html=1;" vertex="1" parent="1">
          <mxGeometry x="2440" y="480" width="40" height="160" as="geometry" />
        </mxCell>
        <mxCell id="4_VUHedXgbbOKvBy3rCh-94" value="1" style="rounded=0;whiteSpace=wrap;html=1;" vertex="1" parent="1">
          <mxGeometry x="2600" y="440" width="40" height="40" as="geometry" />
        </mxCell>
        <mxCell id="4_VUHedXgbbOKvBy3rCh-95" style="edgeStyle=orthogonalEdgeStyle;rounded=0;orthogonalLoop=1;jettySize=auto;html=1;entryX=0.5;entryY=1;entryDx=0;entryDy=0;startArrow=ERzeroToMany;startFill=0;endArrow=ERmandOne;endFill=0;" edge="1" parent="1" source="4_VUHedXgbbOKvBy3rCh-96" target="4_VUHedXgbbOKvBy3rCh-92">
          <mxGeometry relative="1" as="geometry" />
        </mxCell>
        <mxCell id="4_VUHedXgbbOKvBy3rCh-96" value="tblNominationDrol" style="rounded=0;whiteSpace=wrap;html=1;" vertex="1" parent="1">
          <mxGeometry x="2440" y="760" width="160" height="40" as="geometry" />
        </mxCell>
        <mxCell id="4_VUHedXgbbOKvBy3rCh-97" style="edgeStyle=orthogonalEdgeStyle;rounded=0;orthogonalLoop=1;jettySize=auto;html=1;entryX=0.75;entryY=0;entryDx=0;entryDy=0;endArrow=ERoneToMany;endFill=0;startArrow=ERmandOne;startFill=0;" edge="1" parent="1" source="4_VUHedXgbbOKvBy3rCh-98" target="4_VUHedXgbbOKvBy3rCh-101">
          <mxGeometry relative="1" as="geometry" />
        </mxCell>
        <mxCell id="4_VUHedXgbbOKvBy3rCh-98" value="NominationDrolID&lt;br&gt;ElectionDrolID&lt;br&gt;UserNominatedID" style="rounded=0;whiteSpace=wrap;html=1;" vertex="1" parent="1">
          <mxGeometry x="2480" y="800" width="160" height="160" as="geometry" />
        </mxCell>
        <mxCell id="4_VUHedXgbbOKvBy3rCh-113" style="edgeStyle=orthogonalEdgeStyle;rounded=0;orthogonalLoop=1;jettySize=auto;html=1;exitX=0.25;exitY=1;exitDx=0;exitDy=0;entryX=1;entryY=0;entryDx=0;entryDy=0;endArrow=ERzeroToMany;endFill=0;startArrow=ERmandOne;startFill=0;" edge="1" parent="1" source="4_VUHedXgbbOKvBy3rCh-98" target="4_VUHedXgbbOKvBy3rCh-109">
          <mxGeometry relative="1" as="geometry">
            <Array as="points">
              <mxPoint x="2520" y="1000" />
              <mxPoint x="2280" y="1000" />
            </Array>
          </mxGeometry>
        </mxCell>
        <mxCell id="4_VUHedXgbbOKvBy3rCh-99" value="SK&lt;br&gt;CK&lt;br&gt;CK" style="rounded=0;whiteSpace=wrap;html=1;" vertex="1" parent="1">
          <mxGeometry x="2440" y="800" width="40" height="160" as="geometry" />
        </mxCell>
        <mxCell id="4_VUHedXgbbOKvBy3rCh-100" value="2" style="rounded=0;whiteSpace=wrap;html=1;" vertex="1" parent="1">
          <mxGeometry x="2600" y="760" width="40" height="40" as="geometry" />
        </mxCell>
        <mxCell id="4_VUHedXgbbOKvBy3rCh-101" value="tblNominationDrolReason" style="rounded=0;whiteSpace=wrap;html=1;" vertex="1" parent="1">
          <mxGeometry x="2440" y="1080" width="160" height="40" as="geometry" />
        </mxCell>
        <mxCell id="4_VUHedXgbbOKvBy3rCh-102" value="NominationDrolReasonID&lt;br&gt;NominationDrolID&lt;div&gt;SubmitteID&lt;br&gt;Reason&lt;/div&gt;" style="rounded=0;whiteSpace=wrap;html=1;" vertex="1" parent="1">
          <mxGeometry x="2480" y="1120" width="160" height="160" as="geometry" />
        </mxCell>
        <mxCell id="4_VUHedXgbbOKvBy3rCh-103" value="&lt;div&gt;PK&lt;br&gt;FK&lt;br&gt;FK&lt;br&gt;&lt;br&gt;&lt;/div&gt;" style="rounded=0;whiteSpace=wrap;html=1;" vertex="1" parent="1">
          <mxGeometry x="2440" y="1120" width="40" height="160" as="geometry" />
        </mxCell>
        <mxCell id="4_VUHedXgbbOKvBy3rCh-104" value="1" style="rounded=0;whiteSpace=wrap;html=1;" vertex="1" parent="1">
          <mxGeometry x="2600" y="1080" width="40" height="40" as="geometry" />
        </mxCell>
        <mxCell id="4_VUHedXgbbOKvBy3rCh-109" value="tblVoteDrol" style="rounded=0;whiteSpace=wrap;html=1;" vertex="1" parent="1">
          <mxGeometry x="2120" y="1080" width="160" height="40" as="geometry" />
        </mxCell>
        <mxCell id="4_VUHedXgbbOKvBy3rCh-110" value="NominationDrolID&lt;div&gt;UserID&lt;/div&gt;&lt;div&gt;DateOfVote&lt;/div&gt;" style="rounded=0;whiteSpace=wrap;html=1;" vertex="1" parent="1">
          <mxGeometry x="2160" y="1120" width="160" height="160" as="geometry" />
        </mxCell>
        <mxCell id="4_VUHedXgbbOKvBy3rCh-111" value="&lt;div&gt;CK&lt;br&gt;CK&lt;/div&gt;&lt;div&gt;&lt;br&gt;&lt;/div&gt;" style="rounded=0;whiteSpace=wrap;html=1;" vertex="1" parent="1">
          <mxGeometry x="2120" y="1120" width="40" height="160" as="geometry" />
        </mxCell>
        <mxCell id="4_VUHedXgbbOKvBy3rCh-112" value="3" style="rounded=0;whiteSpace=wrap;html=1;" vertex="1" parent="1">
          <mxGeometry x="2280" y="1080" width="40" height="40" as="geometry" />
        </mxCell>
      </root>
    </mxGraphModel>
  </diagram>
</mxfile>
